<svg viewBox="0 0 16 16" xmlns="http://www.w3.org/2000/svg">
    <path d="M12.6667 14L12.6667 2C12.6663 1.8785 12.6328 1.75941 12.5698 1.65554C12.5067 1.55168 12.4166 1.46697 12.309 1.41053C12.2014 1.3541 12.0804 1.32807 11.9592 1.33526C11.8379 1.34245 11.7208 1.38258 11.6207 1.45133L2.95401 7.45133C2.59468 7.7 2.59468 8.29866 2.95401 8.548L11.6207 14.548C11.7206 14.6174 11.8377 14.6582 11.9592 14.6658C12.0807 14.6733 12.2019 14.6475 12.3097 14.591C12.4176 14.5345 12.5078 14.4495 12.5708 14.3454C12.6337 14.2412 12.6669 14.1217 12.6667 14Z"/>
</svg>
