<svg viewBox="0 0 14 14" xmlns="http://www.w3.org/2000/svg">
    <path d="M5.542 1.167C8.312 1.167 8.928 4.083 7.697 7.292C10.866 8.6 11.083 11.269 11.083 12.25H0C0 11.269 0.218 8.6 3.387 7.292C2.155 4.074 2.771 1.167 5.542 1.167ZM5.542 2.333C3.958 2.333 3.415 4.103 4.476 6.875C4.702 7.465 4.416 8.129 3.832 8.37C2.315 8.996 1.569 9.942 1.295 11.083H9.789C9.514 9.942 8.769 8.996 7.252 8.37C6.97083 8.25379 6.74616 8.03237 6.62587 7.75292C6.50557 7.47348 6.49916 7.1581 6.608 6.874C7.668 4.11 7.124 2.334 5.542 2.334V2.333ZM11.956 1.75C12.126 1.75 12.25 1.88 12.25 2.042V3.5H13.708C13.865 3.5 14 3.632 14 3.794V4.372C14 4.542 13.87 4.667 13.708 4.667H12.25V6.125C12.249 6.20246 12.2176 6.27643 12.1626 6.33102C12.1076 6.38562 12.0335 6.41648 11.956 6.417H11.378C11.3393 6.41781 11.3008 6.41083 11.2649 6.39647C11.2289 6.38212 11.1962 6.36069 11.1687 6.33346C11.1412 6.30622 11.1194 6.27373 11.1047 6.23792C11.09 6.20212 11.0826 6.16371 11.083 6.125V4.667H9.625C9.54736 4.66595 9.47325 4.63444 9.41863 4.57926C9.36401 4.52408 9.33326 4.44964 9.333 4.372V3.794C9.333 3.624 9.464 3.5 9.625 3.5H11.083V2.042C11.083 1.885 11.215 1.75 11.378 1.75H11.956Z"/>
</svg>
