<svg width="159" height="56" viewBox="0 0 159 56" fill="none" xmlns="http://www.w3.org/2000/svg">
<path d="M8.90897 22.1707C8.90897 21.6 8.43532 21.1373 7.85104 21.1373C7.26675 21.1373 6.79309 21.6 6.79309 22.1707V33.445C6.79309 34.0157 7.26675 34.4785 7.85104 34.4785C8.43532 34.4785 8.90897 34.0157 8.90897 33.445V22.1707Z" fill="#B9ACDD"/>
<path d="M50.1129 22.1707C50.1129 21.6 49.6393 21.1373 49.0549 21.1373C48.4707 21.1373 47.9971 21.6 47.9971 22.1707V33.445C47.9971 34.0157 48.4707 34.4785 49.0549 34.4785C49.6393 34.4785 50.1129 34.0157 50.1129 33.445V22.1707Z" fill="#B9ACDD"/>
<path d="M16.3473 30C16.1555 30 15.9987 29.8443 16.0121 29.6529C16.0955 28.4536 16.6089 27.32 17.4645 26.4645C18.4021 25.5268 19.6739 25 21 25C22.3261 25 23.5979 25.5268 24.5355 26.4645C25.3911 27.32 25.9045 28.4536 25.9879 29.6529C26.0013 29.8443 25.8445 30 25.6527 30V30C25.4608 30 25.3068 29.8442 25.2913 29.653C25.2093 28.6382 24.7695 27.6809 24.0443 26.9557C23.2369 26.1483 22.1418 25.6947 21 25.6947C19.8582 25.6947 18.7631 26.1483 17.9557 26.9557C17.2305 27.6809 16.7907 28.6382 16.7087 29.653C16.6932 29.8442 16.5392 30 16.3473 30V30Z" stroke="#B9ACDD"/>
<path d="M31.3473 30C31.1555 30 30.9987 29.8443 31.0121 29.6529C31.0955 28.4536 31.6089 27.32 32.4645 26.4645C33.4021 25.5268 34.6739 25 36 25C37.3261 25 38.5979 25.5268 39.5355 26.4645C40.3911 27.32 40.9045 28.4536 40.9879 29.6529C41.0013 29.8443 40.8445 30 40.6527 30V30C40.4608 30 40.3068 29.8442 40.2913 29.653C40.2093 28.6382 39.7695 27.6809 39.0443 26.9557C38.2369 26.1483 37.1418 25.6947 36 25.6947C34.8582 25.6947 33.7631 26.1483 32.9557 26.9557C32.2305 27.6809 31.7907 28.6382 31.7087 29.653C31.6932 29.8442 31.5392 30 31.3473 30V30Z" stroke="#B9ACDD"/>
</svg>
