<svg viewBox="0 0 16 16" xmlns="http://www.w3.org/2000/svg">
    <path d="M7.33334 7.32C7.33334 7.14319 7.40358 6.97362 7.52861 6.8486C7.65363 6.72357 7.8232 6.65333 8.00001 6.65333C8.17682 6.65333 8.34639 6.72357 8.47141 6.8486C8.59644 6.97362 8.66668 7.14319 8.66668 7.32V11.32C8.66668 11.4968 8.59644 11.6664 8.47141 11.7914C8.34639 11.9164 8.17682 11.9867 8.00001 11.9867C7.8232 11.9867 7.65363 11.9164 7.52861 11.7914C7.40358 11.6664 7.33334 11.4968 7.33334 11.32V7.32ZM8.00001 4.034C7.8232 4.034 7.65363 4.10424 7.52861 4.22926C7.40358 4.35429 7.33334 4.52386 7.33334 4.70067C7.33334 4.87748 7.40358 5.04705 7.52861 5.17207C7.65363 5.2971 7.8232 5.36733 8.00001 5.36733C8.17682 5.36733 8.34639 5.2971 8.47141 5.17207C8.59644 5.04705 8.66668 4.87748 8.66668 4.70067C8.66668 4.52386 8.59644 4.35429 8.47141 4.22926C8.34639 4.10424 8.17682 4.034 8.00001 4.034Z"/>
    <path fill-rule="evenodd" clip-rule="evenodd"
          d="M8.00001 1.33333C4.31801 1.33333 1.33334 4.318 1.33334 8C1.33334 11.682 4.31801 14.6667 8.00001 14.6667C11.682 14.6667 14.6667 11.682 14.6667 8C14.6667 4.318 11.682 1.33333 8.00001 1.33333ZM2.66668 8C2.66668 9.41449 3.22858 10.771 4.22877 11.7712C5.22897 12.7714 6.58552 13.3333 8.00001 13.3333C9.4145 13.3333 10.7711 12.7714 11.7712 11.7712C12.7714 10.771 13.3333 9.41449 13.3333 8C13.3333 6.58551 12.7714 5.22896 11.7712 4.22876C10.7711 3.22857 9.4145 2.66667 8.00001 2.66667C6.58552 2.66667 5.22897 3.22857 4.22877 4.22876C3.22858 5.22896 2.66668 6.58551 2.66668 8Z"/>
</svg>
