<svg width="18" height="18" viewBox="0 0 18 18" fill="none" xmlns="http://www.w3.org/2000/svg">
<path d="M12.3709 2.69238C10.9198 2.69238 9.67987 3.72669 8.99864 4.43977C8.31741 3.72669 7.08026 2.69238 5.62987 2.69238C3.12995 2.69238 1.38464 4.43492 1.38464 6.92931C1.38464 9.67777 3.55226 11.4542 5.64926 13.1725C6.63926 13.9846 7.66387 14.8237 8.44964 15.7542C8.58187 15.9099 8.77572 15.9999 8.97926 15.9999H9.01941C9.22364 15.9999 9.4168 15.9092 9.54834 15.7542C10.3355 14.8237 11.3594 13.9839 12.3501 13.1725C14.4464 11.4549 16.6154 9.67846 16.6154 6.92931C16.6154 4.43492 14.8701 2.69238 12.3709 2.69238Z" fill="#D9D9D9"/>
</svg>
