<svg width="159" height="56" viewBox="0 0 159 56" fill="none" xmlns="http://www.w3.org/2000/svg">
<path d="M72.5514 24.5463C72.3773 23.9208 72.1223 23.3351 71.7864 22.7893C71.4507 22.2374 71.034 21.756 70.5363 21.3451C70.0451 20.9282 69.476 20.6032 68.8291 20.3701C68.1886 20.1371 67.4733 20.0206 66.6834 20.0206C65.4396 20.0206 64.3263 20.3395 63.3437 20.9772C62.361 21.615 61.5835 22.5348 61.0113 23.7368C60.4454 24.9387 60.1624 26.386 60.1624 28.0784C60.1624 29.7649 60.4485 31.209 61.0207 32.411C61.5929 33.6129 62.3765 34.5358 63.3717 35.1797C64.373 35.8176 65.5174 36.1364 66.8048 36.1364C67.9802 36.1364 69.0189 35.8789 69.9206 35.3638C70.8224 34.8487 71.5252 34.1128 72.029 33.1561C72.539 32.1994 72.7877 31.0619 72.7753 29.7434L73.335 29.9182H67.2152V28.3729H74.4732V29.9182C74.4732 31.5249 74.1437 32.9138 73.4844 34.0851C72.8251 35.2564 71.9202 36.161 70.7696 36.7987C69.619 37.4365 68.2974 37.7553 66.8048 37.7553C65.138 37.7553 63.6796 37.3598 62.4295 36.5687C61.1793 35.7715 60.206 34.6493 59.5094 33.2021C58.8191 31.7487 58.4738 30.0408 58.4738 28.0784C58.4738 26.6006 58.6729 25.2669 59.0709 24.0772C59.469 22.8875 60.0318 21.8695 60.7595 21.0232C61.4933 20.1769 62.361 19.5299 63.3623 19.0823C64.3636 18.6285 65.4707 18.4017 66.6834 18.4017C67.7284 18.4017 68.683 18.5641 69.5474 18.8891C70.4182 19.2142 71.1832 19.6618 71.8425 20.2322C72.5079 20.7964 73.0521 21.4494 73.475 22.1914C73.9041 22.9273 74.1933 23.7123 74.3426 24.5463H72.5514ZM83.6628 37.4978L78.0281 18.6592H83.8121L86.4242 30.2494H86.5736L89.6707 18.6592H94.2233L97.3206 30.2861H97.4699L100.082 18.6592H105.866L100.231 37.4978H95.2682L92.0217 26.9747H91.8724L88.6259 37.4978H83.6628ZM111.59 37.4978H105.992L112.299 18.6592H119.389L125.695 37.4978H120.098L115.919 23.8471H115.769L111.59 37.4978ZM110.545 30.0653H121.068V33.892H110.545V30.0653ZM128.849 37.4978V18.6592H134.037V33.3769H141.76V37.4978H128.849ZM142.366 22.7802V18.6592H158.971V22.7802H153.224V37.4978H148.111V22.7802H142.366Z" fill="white"/>
<path d="M35.6469 11.8588H21.2034C16.2278 11.8588 12.1942 15.835 12.1942 20.7399V34.9307C12.1942 39.8356 16.2278 43.8117 21.2034 43.8117H35.6469C40.6226 43.8117 44.6562 39.8356 44.6562 34.9307V20.7399C44.6562 15.835 40.6226 11.8588 35.6469 11.8588Z" fill="white"/>
<path d="M10.8733 20.5334H10.1741C9.81365 20.5334 9.52145 20.827 9.52145 21.189V34.5365C9.52145 34.8986 9.81365 35.1922 10.1741 35.1922H10.8733C11.2338 35.1922 11.526 34.8986 11.526 34.5365V21.189C11.526 20.827 11.2338 20.5334 10.8733 20.5334Z" fill="white"/>
<path d="M46.6581 20.4785H45.9395C45.569 20.4785 45.2687 20.7719 45.2687 21.1341V34.4816C45.2687 34.8437 45.569 35.1373 45.9395 35.1373H46.6581C47.0286 35.1373 47.3288 34.8437 47.3288 34.4816V21.1341C47.3288 20.7719 47.0286 20.4785 46.6581 20.4785Z" fill="white"/>
<path d="M7.5 30.5C7.5 30.5 -0.30146 3.1778 29.2155 3.17779M29.2155 3.17779C35.1948 3.17779 38.5552 4.20528 41.7155 6.17779M29.2155 3.17779L22.7155 5.17779M29.2155 3.17779L35.2155 5.17779M49.5 30.5C49.5 30.5 53.3543 13.4422 41.7155 6.17779M41.7155 6.17779L38.7155 5.99998L35.2155 5.17779M15.7155 5.99998H19.5L22.7155 5.17779M22.7155 5.17779L29.2155 4.67779L35.2155 5.17779" stroke="white" stroke-width="2"/>
</svg>
