<svg width="1271" height="454" viewBox="0 0 1271 454" fill="none" xmlns="http://www.w3.org/2000/svg">
<path d="M579.955 199C578.563 193.929 576.525 189.181 573.84 184.756C571.156 180.282 567.825 176.379 563.847 173.048C559.92 169.668 555.371 167.033 550.2 165.143C545.08 163.254 539.362 162.31 533.048 162.31C523.105 162.31 514.206 164.895 506.351 170.065C498.496 175.236 492.281 182.693 487.707 192.438C483.183 202.182 480.921 213.915 480.921 227.636C480.921 241.308 483.208 253.016 487.782 262.761C492.356 272.505 498.62 279.987 506.575 285.207C514.579 290.378 523.727 292.963 534.018 292.963C543.414 292.963 551.717 290.875 558.925 286.699C566.134 282.523 571.752 276.557 575.779 268.801C579.856 261.045 581.844 251.823 581.745 241.134L586.219 242.551H537.299V230.023H595.317V242.551C595.317 255.577 592.683 266.837 587.413 276.333C582.143 285.829 574.909 293.162 565.712 298.332C556.514 303.503 545.95 306.088 534.018 306.088C520.694 306.088 509.036 302.881 499.043 296.468C489.05 290.005 481.269 280.907 475.701 269.174C470.183 257.391 467.423 243.545 467.423 227.636C467.423 215.655 469.014 204.842 472.196 195.197C475.378 185.552 479.877 177.299 485.694 170.438C491.56 163.577 498.496 158.332 506.5 154.703C514.504 151.024 523.354 149.185 533.048 149.185C541.401 149.185 549.032 150.502 555.942 153.137C562.903 155.772 569.018 159.401 574.288 164.025C579.607 168.599 583.957 173.893 587.338 179.909C590.768 185.875 593.08 192.239 594.273 199H579.955ZM668.776 304L623.734 151.273H669.97L690.85 245.236H692.044L716.802 151.273H753.194L777.953 245.534H779.146L800.026 151.273H846.262L801.22 304H761.546L735.595 218.688H734.401L708.45 304H668.776ZM892.017 304H847.273L897.685 151.273H954.361L1004.77 304H960.028L926.619 193.332H925.426L892.017 304ZM883.665 243.744H967.784V274.767H883.665V243.744ZM1029.98 304V151.273H1071.45V270.591H1133.19V304H1029.98ZM1138.03 184.682V151.273H1270.77V184.682H1224.83V304H1183.96V184.682H1138.03Z" fill="#9388D8"/>
<path d="M284.951 96.1412H169.494C129.72 96.1412 97.4766 128.377 97.4766 168.141V283.188C97.4766 322.953 129.72 355.188 169.494 355.188H284.951C324.725 355.188 356.969 322.953 356.969 283.188V168.141C356.969 128.377 324.725 96.1412 284.951 96.1412Z" fill="#9388D8"/>
<path fill-rule="evenodd" clip-rule="evenodd" d="M119.628 269.284L119.286 269.114L162.183 182.49L162.525 182.66L119.628 269.284ZM205.298 269.199L205.635 269.029L163.068 182.575L162.731 182.745L205.298 269.199Z" fill="#9388D8" stroke="#635D8B" stroke-width="9" stroke-linecap="round" stroke-linejoin="round"/>
<path fill-rule="evenodd" clip-rule="evenodd" d="M248.708 269.284L248.365 269.114L291.483 182.49L291.826 182.66L248.708 269.284ZM334.82 269.199L335.159 269.029L292.372 182.575L292.033 182.745L334.82 269.199Z" fill="#9388D8" stroke="#635D8B" stroke-width="9" stroke-linecap="round" stroke-linejoin="round"/>
<path d="M86.9184 166.467H81.3288C78.4475 166.467 76.1118 168.847 76.1118 171.782V279.992C76.1118 282.928 78.4475 285.308 81.3288 285.308H86.9184C89.7996 285.308 92.1353 282.928 92.1353 279.992V171.782C92.1353 168.847 89.7996 166.467 86.9184 166.467Z" fill="#9388D8"/>
<path d="M372.971 166.022H367.227C364.265 166.022 361.865 168.401 361.865 171.337V279.547C361.865 282.483 364.265 284.863 367.227 284.863H372.971C375.933 284.863 378.333 282.483 378.333 279.547V171.337C378.333 168.401 375.933 166.022 372.971 166.022Z" fill="#9388D8"/>
<path d="M71.2157 179.741C71.2157 175.114 67.4295 171.363 62.7589 171.363C58.0883 171.363 54.302 175.114 54.302 179.741V271.143C54.302 275.77 58.0883 279.522 62.7589 279.522C67.4295 279.522 71.2157 275.77 71.2157 271.143V179.741Z" fill="#B3ACDD"/>
<path d="M400.588 179.741C400.588 175.114 396.802 171.363 392.131 171.363C387.461 171.363 383.675 175.114 383.675 179.741V271.143C383.675 275.77 387.461 279.522 392.131 279.522C396.802 279.522 400.588 275.77 400.588 271.143V179.741Z" fill="#B3ACDD"/>
<path d="M71.185 79.6725H70.8013C67.8345 79.6725 65.4294 82.0583 65.4294 85.0012V155.797C65.4294 158.74 67.8345 161.125 70.8013 161.125H71.185C74.1518 161.125 76.5569 158.74 76.5569 155.797V85.0012C76.5569 82.0583 74.1518 79.6725 71.185 79.6725Z" fill="#9388D8"/>
<path d="M383.414 80.1177H383.045C380.197 80.1177 377.888 82.5034 377.888 85.4464V156.242C377.888 159.185 380.197 161.571 383.045 161.571H383.414C386.262 161.571 388.571 159.185 388.571 156.242V85.4464C388.571 82.5034 386.262 80.1177 383.414 80.1177Z" fill="#9388D8"/>
<path d="M379.872 79.6725H74.5725C72.4727 79.6725 70.7705 81.3905 70.7705 83.5096V86.9629C70.7705 89.0821 72.4727 90.8 74.5725 90.8H379.872C381.972 90.8 383.674 89.0821 383.674 86.9629V83.5096C383.674 81.3905 381.972 79.6725 379.872 79.6725Z" fill="#D3CFE8"/>
</svg>
