<svg viewBox="0 0 18 14" xmlns="http://www.w3.org/2000/svg">
    <path d="M9 4H6C4.93913 4 3.92172 4.42143 3.17157 5.17157C2.42143 5.92172 2 6.93913 2 8C2 9.06087 2.42143 10.0783 3.17157 10.8284C3.92172 11.5786 4.93913 12 6 12H12C12.8705 12.0004 13.7173 11.7168 14.412 11.1922C15.1067 10.6677 15.6114 9.93086 15.8493 9.09353C16.0873 8.2562 16.0456 7.3641 15.7307 6.5526C15.4157 5.7411 14.8446 5.0545 14.104 4.597L15.874 3.417L15.894 3.435C16.8277 4.2314 17.4947 5.29496 17.8052 6.48226C18.1156 7.66956 18.0545 8.92351 17.6301 10.075C17.2057 11.2265 16.4384 12.2201 15.4317 12.922C14.4249 13.6238 13.2272 14.0001 12 14H6C4.4087 14 2.88258 13.3679 1.75736 12.2426C0.632141 11.1174 0 9.5913 0 8C0 6.4087 0.632141 4.88258 1.75736 3.75736C2.88258 2.63214 4.4087 2 6 2H9V0L13 3L9 6V4Z"/>
</svg>
