<svg viewBox="0 0 28 28" xmlns="http://www.w3.org/2000/svg">
    <path opacity="0.2" fill-rule="evenodd" clip-rule="evenodd" d="M14 23.3333C15.2256 23.3333 16.4393 23.0919 17.5717 22.6229C18.704 22.1538 19.7329 21.4663 20.5996 20.5997C21.4663 19.733 22.1538 18.7041 22.6228 17.5717C23.0919 16.4393 23.3333 15.2257 23.3333 14C23.3333 12.7743 23.0919 11.5606 22.6228 10.4283C22.1538 9.29591 21.4663 8.26701 20.5996 7.40033C19.7329 6.53365 18.704 5.84616 17.5717 5.37711C16.4393 4.90807 15.2256 4.66666 14 4.66666C11.5246 4.66666 9.15064 5.64999 7.4003 7.40033C5.64996 9.15067 4.66663 11.5246 4.66663 14C4.66663 16.4753 5.64996 18.8493 7.4003 20.5997C9.15064 22.35 11.5246 23.3333 14 23.3333ZM14 27.3333C21.364 27.3333 27.3333 21.364 27.3333 14C27.3333 6.63599 21.364 0.666656 14 0.666656C6.63596 0.666656 0.666626 6.63599 0.666626 14C0.666626 21.364 6.63596 27.3333 14 27.3333Z" />
    <path d="M2.66663 14C1.56206 14 0.650855 13.0993 0.81457 12.0069C1.67909 6.23856 6.23853 1.67912 12.0069 0.814601C13.0993 0.650885 14 1.56209 14 2.66666V2.66666C14 3.77123 13.0945 4.64519 12.0152 4.8801C10.2806 5.25764 8.67505 6.12557 7.4003 7.40033C6.12554 8.67508 5.25761 10.2806 4.88007 12.0152C4.64516 13.0945 3.7712 14 2.66663 14V14Z" />
</svg>
