<svg width="160" height="56" viewBox="0 0 160 56" fill="none" xmlns="http://www.w3.org/2000/svg">
<path d="M8.965 22.1707C8.965 21.6 8.48837 21.1373 7.90041 21.1373C7.31245 21.1373 6.83582 21.6 6.83582 22.1707V33.445C6.83582 34.0157 7.31245 34.4785 7.90041 34.4785C8.48837 34.4785 8.965 34.0157 8.965 33.445V22.1707Z" fill="#FF7777"/>
<path d="M50.4281 22.1707C50.4281 21.6 49.9515 21.1373 49.3635 21.1373C48.7756 21.1373 48.299 21.6 48.299 22.1707V33.4449C48.299 34.0157 48.7756 34.4785 49.3635 34.4785C49.9515 34.4785 50.4281 34.0157 50.4281 33.4449V22.1707Z" fill="#FF7777"/>
<path d="M16.4502 30C16.2571 30 16.0993 29.8433 16.1129 29.6507C16.1973 28.4523 16.7139 27.3195 17.5743 26.4645C18.5179 25.5268 19.7977 24 21.1321 24C22.4665 24 23.7463 25.5268 24.6898 26.4645C25.5502 27.3195 26.0668 28.4523 26.1512 29.6507C26.1648 29.8433 26.007 30 25.814 30V30C25.621 30 25.466 29.8432 25.4502 29.6508C25.3672 28.6368 24.9248 27.6804 24.1955 26.9557C23.3831 26.1483 22.2811 24.6947 21.1321 24.6947C19.9831 24.6947 18.8811 26.1483 18.0686 26.9557C17.3394 27.6804 16.8969 28.6368 16.8139 29.6508C16.7982 29.8432 16.6432 30 16.4502 30V30Z" fill="#FF7777" stroke="#FF7777"/>
<path d="M30.5382 30C30.3452 30 30.1874 29.8433 30.201 29.6507C30.2854 28.4523 30.802 27.3195 31.6624 26.4645C32.6059 25.5268 33.8857 26 35.2201 26C36.5545 26 37.8343 25.5268 38.7779 26.4645C39.6383 27.3195 40.1549 28.4523 40.2393 29.6507C40.2529 29.8433 40.0951 30 39.902 30V30C39.709 30 39.554 29.8432 39.5383 29.6508C39.4553 28.6368 39.0128 27.6804 38.2836 26.9557C37.4711 26.1483 36.3691 26.6947 35.2201 26.6947C34.0711 26.6947 32.9691 26.1483 32.1567 26.9557C31.4274 27.6804 30.985 28.6368 30.902 29.6508C30.8862 29.8432 30.7312 30 30.5382 30V30Z" fill="#FF7777" stroke="#FF7777"/>
</svg>
