<svg viewBox="0 0 32 32" xmlns="http://www.w3.org/2000/svg">
    <path fill-rule="evenodd" clip-rule="evenodd" d="M16 3.66669C14.2769 3.66842 12.5732 4.0312 10.9989 4.73165C9.42456 5.43211 8.01447 6.45468 6.85953 7.73345C5.70458 9.01223 4.83041 10.5188 4.29337 12.1561C3.75633 13.7934 3.56834 15.5251 3.74151 17.2395C3.91468 18.9539 4.44517 20.613 5.29879 22.1098C6.15241 23.6067 7.31021 24.908 8.69756 25.93C10.0849 26.952 11.671 27.6719 13.3536 28.0434C15.0362 28.4148 16.778 28.4296 18.4667 28.0867C18.5954 28.0604 18.728 28.0598 18.8569 28.0847C18.9859 28.1097 19.1086 28.1599 19.2182 28.2323C19.3278 28.3047 19.422 28.398 19.4955 28.5069C19.5691 28.6157 19.6204 28.738 19.6467 28.8667C19.6729 28.9954 19.6736 29.128 19.6486 29.2569C19.6236 29.3859 19.5735 29.5087 19.5011 29.6182C19.4286 29.7278 19.3353 29.822 19.2265 29.8956C19.1176 29.9691 18.9954 30.0204 18.8667 30.0467C17.9231 30.2377 16.9627 30.3337 16 30.3334C8.08401 30.3334 1.66667 23.916 1.66667 16C1.66667 8.08402 8.08401 1.66669 16 1.66669C23.916 1.66669 30.3333 8.08402 30.3333 16C30.3333 16.98 30.2347 17.9387 30.0467 18.8667C29.9936 19.1266 29.8395 19.3548 29.6182 19.5011C29.3969 19.6474 29.1266 19.6997 28.8667 19.6467C28.6068 19.5936 28.3786 19.4395 28.2323 19.2182C28.086 18.9969 28.0336 18.7266 28.0867 18.4667C28.4525 16.6746 28.4151 14.8235 27.9773 13.0476C27.5394 11.2717 26.712 9.61544 25.5551 8.19876C24.3981 6.78208 22.9406 5.64047 21.288 4.85662C19.6353 4.07277 17.8291 3.66631 16 3.66669ZM17.3333 9.33335C17.8853 9.33335 18.3173 9.79335 18.4973 10.3147C18.7014 10.9043 19.0843 11.4156 19.5926 11.7774C20.1009 12.1392 20.7094 12.3336 21.3333 12.3334C21.5986 12.3334 21.8529 12.4387 22.0404 12.6262C22.228 12.8138 22.3333 13.0681 22.3333 13.3334C22.3333 13.5986 22.228 13.8529 22.0404 14.0405C21.8529 14.228 21.5986 14.3334 21.3333 14.3334C20.2512 14.3349 19.1981 13.9839 18.3333 13.3334V20C18.3332 20.799 18.0721 21.5761 17.5896 22.2131C17.1072 22.85 16.43 23.312 15.6609 23.5286C14.8918 23.7453 14.073 23.7048 13.3291 23.4133C12.5851 23.1219 11.9568 22.5953 11.5396 21.9139C11.1223 21.2325 10.9391 20.4334 11.0178 19.6383C11.0965 18.8431 11.4328 18.0955 11.9754 17.509C12.5181 16.9226 13.2375 16.5294 14.0241 16.3894C14.8108 16.2494 15.6216 16.3702 16.3333 16.7334V10.3334C16.3333 10.202 16.3592 10.072 16.4095 9.95067C16.4597 9.82934 16.5334 9.71911 16.6262 9.62625C16.7191 9.53339 16.8293 9.45973 16.9507 9.40947C17.072 9.35922 17.202 9.33335 17.3333 9.33335ZM16.3333 20C16.3333 19.558 16.1577 19.1341 15.8452 18.8215C15.5326 18.5089 15.1087 18.3334 14.6667 18.3334C14.2246 18.3334 13.8007 18.5089 13.4882 18.8215C13.1756 19.1341 13 19.558 13 20C13 20.442 13.1756 20.866 13.4882 21.1785C13.8007 21.4911 14.2246 21.6667 14.6667 21.6667C15.1087 21.6667 15.5326 21.4911 15.8452 21.1785C16.1577 20.866 16.3333 20.442 16.3333 20ZM23.2933 19.2934C23.4808 19.1061 23.735 19.0009 24 19.0009C24.265 19.0009 24.5192 19.1061 24.7067 19.2934L28.04 22.6267C28.1383 22.7182 28.2171 22.8286 28.2717 22.9513C28.3264 23.074 28.3558 23.2064 28.3581 23.3407C28.3605 23.4749 28.3358 23.6083 28.2855 23.7328C28.2352 23.8573 28.1603 23.9704 28.0654 24.0654C27.9704 24.1604 27.8573 24.2352 27.7328 24.2855C27.6083 24.3358 27.4749 24.3605 27.3406 24.3581C27.2064 24.3558 27.074 24.3264 26.9513 24.2717C26.8286 24.2171 26.7182 24.1383 26.6267 24.04L25 22.4134V29.3334C25 29.5986 24.8946 29.8529 24.7071 30.0405C24.5196 30.228 24.2652 30.3334 24 30.3334C23.7348 30.3334 23.4804 30.228 23.2929 30.0405C23.1054 29.8529 23 29.5986 23 29.3334V22.4134L21.3733 24.04C21.2818 24.1383 21.1714 24.2171 21.0487 24.2717C20.9261 24.3264 20.7936 24.3558 20.6594 24.3581C20.5251 24.3605 20.3917 24.3358 20.2672 24.2855C20.1427 24.2352 20.0296 24.1604 19.9346 24.0654C19.8397 23.9704 19.7648 23.8573 19.7145 23.7328C19.6642 23.6083 19.6395 23.4749 19.6419 23.3407C19.6443 23.2064 19.6736 23.074 19.7283 22.9513C19.783 22.8286 19.8618 22.7182 19.96 22.6267L23.2933 19.2934Z" />
</svg>